<svg width="127" height="22" viewBox="0 0 127 22" fill="none" xmlns="http://www.w3.org/2000/svg">
<path d="M11 18C7.1339 18 4 14.8661 4 11C4 7.1339 7.1339 4 11 4C14.8661 4 18 7.1339 18 11C18 12.8564 17.2625 14.6368 15.9497 15.9497C14.6368 17.2625 12.8564 18 11 18Z" fill="#27E1BF"/>
<path d="M26.9318 16.5V15.1875L32.8977 6.63068H26.8977V4.86364H35.5114V6.17614L29.5511 14.733H35.5455V16.5H26.9318ZM40.0057 16.6761C39.4527 16.6761 38.9545 16.5777 38.5114 16.3807C38.072 16.1799 37.7235 15.8845 37.4659 15.4943C37.2121 15.1042 37.0852 14.6231 37.0852 14.0511C37.0852 13.5587 37.1761 13.1515 37.358 12.8295C37.5398 12.5076 37.7879 12.25 38.1023 12.0568C38.4167 11.8636 38.7708 11.7178 39.1648 11.6193C39.5625 11.517 39.9735 11.4432 40.3977 11.3977C40.9091 11.3447 41.3239 11.2973 41.642 11.2557C41.9602 11.2102 42.1913 11.142 42.3352 11.0511C42.483 10.9564 42.5568 10.8106 42.5568 10.6136V10.5795C42.5568 10.1515 42.4299 9.82008 42.1761 9.58523C41.9223 9.35038 41.5568 9.23295 41.0795 9.23295C40.5758 9.23295 40.1761 9.3428 39.8807 9.5625C39.589 9.7822 39.392 10.0417 39.2898 10.3409L37.3693 10.0682C37.5208 9.53788 37.7708 9.0947 38.1193 8.73864C38.4678 8.37879 38.8939 8.10985 39.3977 7.93182C39.9015 7.75 40.4583 7.65909 41.0682 7.65909C41.4886 7.65909 41.9072 7.70833 42.3239 7.80682C42.7405 7.9053 43.1212 8.06818 43.4659 8.29545C43.8106 8.51894 44.0871 8.82386 44.2955 9.21023C44.5076 9.59659 44.6136 10.0795 44.6136 10.6591V16.5H42.6364V15.3011H42.5682C42.4432 15.5436 42.267 15.7708 42.0398 15.983C41.8163 16.1913 41.5341 16.3598 41.1932 16.4886C40.8561 16.6136 40.4602 16.6761 40.0057 16.6761ZM40.5398 15.1648C40.9527 15.1648 41.3106 15.0833 41.6136 14.9205C41.9167 14.7538 42.1496 14.5341 42.3125 14.2614C42.4792 13.9886 42.5625 13.6913 42.5625 13.3693V12.3409C42.4981 12.3939 42.3883 12.4432 42.233 12.4886C42.0814 12.5341 41.911 12.5739 41.7216 12.608C41.5322 12.642 41.3447 12.6723 41.1591 12.6989C40.9735 12.7254 40.8125 12.7481 40.6761 12.767C40.3693 12.8087 40.0947 12.8769 39.8523 12.9716C39.6098 13.0663 39.4186 13.1989 39.2784 13.3693C39.1383 13.536 39.0682 13.7519 39.0682 14.017C39.0682 14.3958 39.2064 14.6818 39.483 14.875C39.7595 15.0682 40.1117 15.1648 40.5398 15.1648ZM49.1932 16.6761C48.6402 16.6761 48.142 16.5777 47.6989 16.3807C47.2595 16.1799 46.911 15.8845 46.6534 15.4943C46.3996 15.1042 46.2727 14.6231 46.2727 14.0511C46.2727 13.5587 46.3636 13.1515 46.5455 12.8295C46.7273 12.5076 46.9754 12.25 47.2898 12.0568C47.6042 11.8636 47.9583 11.7178 48.3523 11.6193C48.75 11.517 49.161 11.4432 49.5852 11.3977C50.0966 11.3447 50.5114 11.2973 50.8295 11.2557C51.1477 11.2102 51.3788 11.142 51.5227 11.0511C51.6705 10.9564 51.7443 10.8106 51.7443 10.6136V10.5795C51.7443 10.1515 51.6174 9.82008 51.3636 9.58523C51.1098 9.35038 50.7443 9.23295 50.267 9.23295C49.7633 9.23295 49.3636 9.3428 49.0682 9.5625C48.7765 9.7822 48.5795 10.0417 48.4773 10.3409L46.5568 10.0682C46.7083 9.53788 46.9583 9.0947 47.3068 8.73864C47.6553 8.37879 48.0814 8.10985 48.5852 7.93182C49.089 7.75 49.6458 7.65909 50.2557 7.65909C50.6761 7.65909 51.0947 7.70833 51.5114 7.80682C51.928 7.9053 52.3087 8.06818 52.6534 8.29545C52.9981 8.51894 53.2746 8.82386 53.483 9.21023C53.6951 9.59659 53.8011 10.0795 53.8011 10.6591V16.5H51.8239V15.3011H51.7557C51.6307 15.5436 51.4545 15.7708 51.2273 15.983C51.0038 16.1913 50.7216 16.3598 50.3807 16.4886C50.0436 16.6136 49.6477 16.6761 49.1932 16.6761ZM49.7273 15.1648C50.1402 15.1648 50.4981 15.0833 50.8011 14.9205C51.1042 14.7538 51.3371 14.5341 51.5 14.2614C51.6667 13.9886 51.75 13.6913 51.75 13.3693V12.3409C51.6856 12.3939 51.5758 12.4432 51.4205 12.4886C51.2689 12.5341 51.0985 12.5739 50.9091 12.608C50.7197 12.642 50.5322 12.6723 50.3466 12.6989C50.161 12.7254 50 12.7481 49.8636 12.767C49.5568 12.8087 49.2822 12.8769 49.0398 12.9716C48.7973 13.0663 48.6061 13.1989 48.4659 13.3693C48.3258 13.536 48.2557 13.7519 48.2557 14.017C48.2557 14.3958 48.3939 14.6818 48.6705 14.875C48.947 15.0682 49.2992 15.1648 49.7273 15.1648ZM57.9261 11.3864V16.5H55.8693V7.77273H57.8352V9.25568H57.9375C58.1383 8.76705 58.4583 8.37879 58.8977 8.09091C59.3409 7.80303 59.8883 7.65909 60.5398 7.65909C61.142 7.65909 61.6667 7.78788 62.1136 8.04545C62.5644 8.30303 62.9129 8.67614 63.1591 9.16477C63.4091 9.65341 63.5322 10.2462 63.5284 10.9432V16.5H61.4716V11.2614C61.4716 10.678 61.3201 10.2216 61.017 9.89205C60.7178 9.5625 60.303 9.39773 59.7727 9.39773C59.4129 9.39773 59.0928 9.47727 58.8125 9.63636C58.536 9.79167 58.3182 10.017 58.1591 10.3125C58.0038 10.608 57.9261 10.9659 57.9261 11.3864ZM79.6392 8.78977H77.5142C77.4536 8.44129 77.3419 8.13258 77.179 7.86364C77.0161 7.59091 76.8134 7.35985 76.571 7.17045C76.3286 6.98106 76.0521 6.83901 75.7415 6.74432C75.4347 6.64583 75.1032 6.59659 74.7472 6.59659C74.1146 6.59659 73.554 6.75568 73.0653 7.07386C72.5767 7.38826 72.1941 7.85038 71.9176 8.46023C71.6411 9.06629 71.5028 9.80682 71.5028 10.6818C71.5028 11.572 71.6411 12.322 71.9176 12.9318C72.1979 13.5379 72.5805 13.9962 73.0653 14.3068C73.554 14.6136 74.1127 14.767 74.7415 14.767C75.09 14.767 75.4157 14.7216 75.7188 14.6307C76.0256 14.536 76.3002 14.3977 76.5426 14.2159C76.7888 14.0341 76.9953 13.8106 77.1619 13.5455C77.3324 13.2803 77.4498 12.9773 77.5142 12.6364L79.6392 12.6477C79.5597 13.2008 79.3873 13.7197 79.1222 14.2045C78.8608 14.6894 78.518 15.1174 78.0938 15.4886C77.6695 15.8561 77.1733 16.1439 76.6051 16.3523C76.0369 16.5568 75.4063 16.6591 74.7131 16.6591C73.6903 16.6591 72.7775 16.4223 71.9744 15.9489C71.1714 15.4754 70.5388 14.7917 70.0767 13.8977C69.6146 13.0038 69.3835 11.9318 69.3835 10.6818C69.3835 9.42803 69.6165 8.35606 70.0824 7.46591C70.5483 6.57197 71.1828 5.88826 71.9858 5.41477C72.7888 4.94129 73.6979 4.70455 74.7131 4.70455C75.3608 4.70455 75.9631 4.79545 76.5199 4.97727C77.0767 5.15909 77.5729 5.42614 78.0085 5.77841C78.4441 6.12689 78.8021 6.55492 79.0824 7.0625C79.3665 7.56629 79.5521 8.14205 79.6392 8.78977ZM85.2855 16.6705C84.4332 16.6705 83.6946 16.483 83.0696 16.108C82.4446 15.733 81.9598 15.2083 81.6151 14.5341C81.2741 13.8598 81.1037 13.072 81.1037 12.1705C81.1037 11.2689 81.2741 10.4792 81.6151 9.80114C81.9598 9.12311 82.4446 8.59659 83.0696 8.22159C83.6946 7.84659 84.4332 7.65909 85.2855 7.65909C86.1378 7.65909 86.8764 7.84659 87.5014 8.22159C88.1264 8.59659 88.6094 9.12311 88.9503 9.80114C89.295 10.4792 89.4673 11.2689 89.4673 12.1705C89.4673 13.072 89.295 13.8598 88.9503 14.5341C88.6094 15.2083 88.1264 15.733 87.5014 16.108C86.8764 16.483 86.1378 16.6705 85.2855 16.6705ZM85.2969 15.0227C85.759 15.0227 86.1454 14.8958 86.456 14.642C86.7666 14.3845 86.9976 14.0398 87.1491 13.608C87.3045 13.1761 87.3821 12.6951 87.3821 12.1648C87.3821 11.6307 87.3045 11.1477 87.1491 10.7159C86.9976 10.2803 86.7666 9.93371 86.456 9.67614C86.1454 9.41856 85.759 9.28977 85.2969 9.28977C84.8234 9.28977 84.4295 9.41856 84.1151 9.67614C83.8045 9.93371 83.5715 10.2803 83.4162 10.7159C83.2647 11.1477 83.1889 11.6307 83.1889 12.1648C83.1889 12.6951 83.2647 13.1761 83.4162 13.608C83.5715 14.0398 83.8045 14.3845 84.1151 14.642C84.4295 14.8958 84.8234 15.0227 85.2969 15.0227ZM91.2131 16.5V7.77273H93.2074V9.22727H93.2983C93.4574 8.72348 93.7301 8.33523 94.1165 8.0625C94.5066 7.78598 94.9517 7.64773 95.4517 7.64773C95.5653 7.64773 95.6922 7.65341 95.8324 7.66477C95.9763 7.67235 96.0956 7.68561 96.1903 7.70455V9.59659C96.1032 9.56629 95.965 9.53977 95.7756 9.51705C95.59 9.49053 95.41 9.47727 95.2358 9.47727C94.8608 9.47727 94.5237 9.55871 94.2244 9.72159C93.929 9.88068 93.696 10.1023 93.5256 10.3864C93.3551 10.6705 93.2699 10.9981 93.2699 11.3693V16.5H91.2131ZM97.5568 19.7727V7.77273H99.5795V9.21591H99.6989C99.8049 9.00379 99.9545 8.77841 100.148 8.53977C100.341 8.29735 100.602 8.09091 100.932 7.92045C101.261 7.74621 101.682 7.65909 102.193 7.65909C102.867 7.65909 103.475 7.83144 104.017 8.17614C104.563 8.51705 104.994 9.02273 105.312 9.69318C105.634 10.3598 105.795 11.178 105.795 12.1477C105.795 13.1061 105.638 13.9205 105.324 14.5909C105.009 15.2614 104.581 15.7727 104.04 16.125C103.498 16.4773 102.884 16.6534 102.199 16.6534C101.699 16.6534 101.284 16.5701 100.955 16.4034C100.625 16.2367 100.36 16.036 100.159 15.8011C99.9621 15.5625 99.8087 15.3371 99.6989 15.125H99.6136V19.7727H97.5568ZM99.5739 12.1364C99.5739 12.7008 99.6534 13.1951 99.8125 13.6193C99.9754 14.0436 100.208 14.375 100.511 14.6136C100.818 14.8485 101.189 14.9659 101.625 14.9659C102.08 14.9659 102.46 14.8447 102.767 14.6023C103.074 14.3561 103.305 14.0208 103.46 13.5966C103.619 13.1686 103.699 12.6818 103.699 12.1364C103.699 11.5947 103.621 11.1136 103.466 10.6932C103.311 10.2727 103.08 9.94318 102.773 9.70455C102.466 9.46591 102.083 9.34659 101.625 9.34659C101.186 9.34659 100.812 9.46212 100.506 9.69318C100.199 9.92424 99.9659 10.2481 99.8068 10.6648C99.6515 11.0814 99.5739 11.572 99.5739 12.1364Z" fill="#070F21"/>
<g opacity="0.6">
<path d="M115 9L119 13L123 9" stroke="#070F21" stroke-width="1.5" stroke-linecap="round" stroke-linejoin="round"/>
</g>
</svg>
